<svg id="Birthday-Cake--Streamline-Openmoji" viewBox="0 0 32 32" xmlns="http://www.w3.org/2000/svg" height="32" width="32">
  <desc>
    Birthday Cake Streamline Emoji: https://streamlinehq.com
  </desc>
  <g id="color">
    <path fill="#fcea2b" stroke="none" d="M3.75 17.531244444444447c0 0.5412 24.5 1.0312 24.5 0.49v-3.4299999999999997H27.759999999999998V9.201244444444443c0 -1.3529777777777776 -1.0972444444444442 -2.4499999999999997 -2.4499999999999997 -2.4499999999999997h-18.62c-1.3527555555555555 0 -2.4499999999999997 1.0970222222222223 -2.4499999999999997 2.4499999999999997v5.39H3.75v2.94Z" stroke-width="0.4444"></path>
    <path fill="#ffffff" stroke="none" d="M4.239999999999999 10.14391111111111c0.9527111111111112 -0.6409777777777778 2.255244444444444 -0.5421333333333334 3.097422222222222 0.30004444444444445 0.9570222222222222 0.9565777777777776 2.5083555555555552 0.9565777777777776 3.465422222222222 0 0.9565333333333333 -0.9565333333333333 2.507911111111111 -0.9565333333333333 3.4644888888888885 0 0.9569777777777777 0.9565777777777776 2.5083555555555552 0.9565777777777776 3.465377777777778 0 0.9565333333333333 -0.9565333333333333 2.507911111111111 -0.9565333333333333 3.464444444444444 0 0.9570666666666666 0.9565777777777776 2.5084 0.9565777777777776 3.465422222222222 0 0.8422222222222222 -0.8421777777777777 2.144711111111111 -0.9410222222222222 3.097422222222222 -0.30004444444444445v-0.9426666666666667c0 -1.3529777777777776 -1.0972444444444442 -2.4499999999999997 -2.4499999999999997 -2.4499999999999997h-18.62c-1.3527555555555555 0 -2.4499999999999997 1.0970222222222223 -2.4499999999999997 2.4499999999999997v0.9426666666666667Z" stroke-width="0.4444"></path>
    <path fill="#fcea2b" stroke="none" d="M0.8099999999999999 28.801244444444446c0 0.5412 0.43879999999999997 0.98 0.98 0.98h28.419999999999998c0.5412 0 0.98 -0.43879999999999997 0.98 -0.98V19.491244444444444c0 -1.3532444444444442 -1.0972444444444442 -2.4499999999999997 -2.4499999999999997 -2.4499999999999997H3.26c-1.3527555555555555 0 -2.4499999999999997 1.0967555555555555 -2.4499999999999997 2.4499999999999997v9.31Z" stroke-width="0.4444"></path>
    <path fill="#ea5a47" stroke="none" d="M14.530000000000001 5.281244444444444c0 1.1316 1.2249777777777777 1.8388444444444445 2.2049777777777777 1.2730666666666666 0.45484444444444444 -0.26257777777777774 0.7350222222222221 -0.7478666666666667 0.7350222222222221 -1.2730666666666666 0 -1.1316 -1.2249777777777777 -1.8388444444444445 -2.2049777777777777 -1.2730666666666666 -0.45484444444444444 0.2626222222222222 -0.7350222222222221 0.7479111111111111 -0.7350222222222221 1.2730666666666666" stroke-width="0.4444"></path>
    <path fill="#ffffff" stroke="none" stroke-linecap="round" stroke-linejoin="round" stroke-miterlimit="10" stroke-width="0.8889" d="M3.8729777777777774 21.713955555555554c0.9565333333333333 0.9565777777777776 2.5078666666666662 0.9565777777777776 3.464444444444444 0 0.9570222222222222 -0.9565333333333333 2.5084 -0.9565333333333333 3.4654666666666665 0 0.9564888888888888 0.9565777777777776 2.5078666666666662 0.9565777777777776 3.464444444444444 0 0.9570222222222222 -0.9565333333333333 2.5083555555555552 -0.9565333333333333 3.465377777777778 0 0.9565777777777776 0.9565777777777776 2.507911111111111 0.9565777777777776 3.464444444444444 0 0.9570666666666666 -0.9565333333333333 2.5084 -0.9565333333333333 3.465422222222222 0 0.9565777777777776 0.9565777777777776 2.507911111111111 0.9565777777777776 3.464444444444444 0 0.8326222222222222 -0.8321333333333333 2.1136 -0.9383555555555555 3.062977777777778 -0.32297777777777775v-1.8997333333333333c0 -1.3532444444444442 -1.0972444444444442 -2.4499999999999997 -2.4499999999999997 -2.4499999999999997H3.26c-1.3527555555555555 0 -2.4499999999999997 1.0967555555555555 -2.4499999999999997 2.4499999999999997v1.8997333333333333c0.9493777777777777 -0.6153777777777778 2.2304 -0.5091555555555555 3.062977777777778 0.32297777777777775Z"></path>
  </g>
  <g id="hair"></g>
  <g id="skin"></g>
  <g id="skin-shadow"></g>
  <g id="line">
    <path fill="none" stroke="#000000" stroke-linecap="round" stroke-linejoin="round" stroke-miterlimit="10" stroke-width="0.8889" d="M14.530000000000001 5.281244444444444c0 1.1316 1.2249777777777777 1.8388444444444445 2.2049777777777777 1.2730666666666666 0.45484444444444444 -0.26257777777777774 0.7350222222222221 -0.7478666666666667 0.7350222222222221 -1.2730666666666666 0 -1.1316 -1.2249777777777777 -1.8388444444444445 -2.2049777777777777 -1.2730666666666666 -0.45484444444444444 0.2626222222222222 -0.7350222222222221 0.7479111111111111 -0.7350222222222221 1.2730666666666666"></path>
    <path fill="none" stroke="#000000" stroke-linecap="round" stroke-linejoin="round" stroke-miterlimit="10" stroke-width="0.8889" d="M16 4.668755555555555c0 -1.3532444444444442 1.0967555555555555 -2.4499999999999997 2.4499999999999997 -2.4499999999999997"></path>
    <path fill="none" stroke="#000000" stroke-linecap="round" stroke-linejoin="round" stroke-miterlimit="10" stroke-width="0.8889" d="M3.8729777777777774 21.713955555555554c0.9565333333333333 0.9565777777777776 2.5078666666666662 0.9565777777777776 3.464444444444444 0 0.9570222222222222 -0.9565333333333333 2.5084 -0.9565333333333333 3.4654666666666665 0 0.9564888888888888 0.9565777777777776 2.5078666666666662 0.9565777777777776 3.464444444444444 0 0.9570222222222222 -0.9565333333333333 2.5083555555555552 -0.9565333333333333 3.465377777777778 0 0.9565777777777776 0.9565777777777776 2.507911111111111 0.9565777777777776 3.464444444444444 0 0.9570666666666666 -0.9565333333333333 2.5084 -0.9565333333333333 3.465422222222222 0 0.9565777777777776 0.9565777777777776 2.507911111111111 0.9565777777777776 3.464444444444444 0 0.8326222222222222 -0.8321333333333333 2.1136 -0.9383555555555555 3.062977777777778 -0.32297777777777775v-1.8997333333333333c0 -1.3532444444444442 -1.0972444444444442 -2.4499999999999997 -2.4499999999999997 -2.4499999999999997H3.26c-1.3527555555555555 0 -2.4499999999999997 1.0967555555555555 -2.4499999999999997 2.4499999999999997v1.8997333333333333c0.9493777777777777 -0.6153777777777778 2.2304 -0.5091555555555555 3.062977777777778 0.32297777777777775Z"></path>
    <path fill="none" stroke="#000000" stroke-linecap="round" stroke-linejoin="round" stroke-miterlimit="10" stroke-width="0.8889" d="M0.8099999999999999 21.390977777777778v7.410266666666667c0 0.5412 0.43879999999999997 0.98 0.98 0.98h28.419999999999998c0.5412 0 0.98 -0.43879999999999997 0.98 -0.98V21.390977777777778"></path>
    <path fill="none" stroke="#000000" stroke-linecap="round" stroke-linejoin="round" stroke-miterlimit="10" stroke-width="0.8889" d="M3.8729777777777774 21.713955555555554c0.9565333333333333 0.9565777777777776 2.5078666666666662 0.9565777777777776 3.464444444444444 0 0.9570222222222222 -0.9565333333333333 2.5084 -0.9565333333333333 3.4654666666666665 0 0.9564888888888888 0.9565777777777776 2.5078666666666662 0.9565777777777776 3.464444444444444 0 0.9570222222222222 -0.9565333333333333 2.5083555555555552 -0.9565333333333333 3.465377777777778 0 0.9565777777777776 0.9565777777777776 2.507911111111111 0.9565777777777776 3.464444444444444 0 0.9570666666666666 -0.9565333333333333 2.5084 -0.9565333333333333 3.465422222222222 0 0.9565777777777776 0.9565777777777776 2.507911111111111 0.9565777777777776 3.464444444444444 0 0.8326222222222222 -0.8321333333333333 2.1136 -0.9383555555555555 3.062977777777778 -0.32297777777777775v-1.8997333333333333c0 -1.3532444444444442 -1.0972444444444442 -2.4499999999999997 -2.4499999999999997 -2.4499999999999997H3.26c-1.3527555555555555 0 -2.4499999999999997 1.0967555555555555 -2.4499999999999997 2.4499999999999997v1.8997333333333333c0.9493777777777777 -0.6153777777777778 2.2304 -0.5091555555555555 3.062977777777778 0.32297777777777775Z"></path>
    <path fill="none" stroke="#000000" stroke-linecap="round" stroke-linejoin="round" stroke-miterlimit="10" stroke-width="0.8889" d="M27.759999999999998 10.14391111111111v4.937333333333333"></path>
    <path fill="none" stroke="#000000" stroke-linecap="round" stroke-linejoin="round" stroke-miterlimit="10" stroke-width="0.8889" d="M4.239999999999999 10.14391111111111v4.937333333333333"></path>
    <path fill="none" stroke="#000000" stroke-linecap="round" stroke-linejoin="round" stroke-miterlimit="10" stroke-width="0.8889" d="M4.239999999999999 10.14391111111111c0.9527111111111112 -0.6409777777777778 2.255244444444444 -0.5421333333333334 3.097422222222222 0.30004444444444445 0.9570222222222222 0.9565777777777776 2.5083555555555552 0.9565777777777776 3.465422222222222 0 0.9565333333333333 -0.9565333333333333 2.507911111111111 -0.9565333333333333 3.4644888888888885 0 0.9569777777777777 0.9565777777777776 2.5083555555555552 0.9565777777777776 3.465377777777778 0 0.9565333333333333 -0.9565333333333333 2.507911111111111 -0.9565333333333333 3.464444444444444 0 0.9570666666666666 0.9565777777777776 2.5084 0.9565777777777776 3.465422222222222 0 0.8422222222222222 -0.8421777777777777 2.144711111111111 -0.9410222222222222 3.097422222222222 -0.30004444444444445v-0.9426666666666667c0 -1.3529777777777776 -1.0972444444444442 -2.4499999999999997 -2.4499999999999997 -2.4499999999999997h-18.62c-1.3527555555555555 0 -2.4499999999999997 1.0970222222222223 -2.4499999999999997 2.4499999999999997v0.9426666666666667Z"></path>
  </g>
</svg>